<!--?xml version="1.0" standalone="no"?-->
              <svg id="sw-js-blob-svg" viewBox="0 0 100 100" xmlns="http://www.w3.org/2000/svg" version="1.1">
                    <defs>
                        <linearGradient id="sw-gradient" x1="0" x2="1" y1="1" y2="0">
                            <stop id="stop1" stop-color="rgba(248, 117, 55, 1)" offset="0%"></stop>
                            <stop id="stop2" stop-color="rgba(251, 168, 31, 1)" offset="100%"></stop>
                        </linearGradient>
                    </defs>
                <path id="blob-path" fill="url(#sw-gradient)" d="M14.7,-25.2C18.8,-23,22,-18.7,23.8,-14.2C25.7,-9.7,26.2,-4.8,26.3,0.1C26.5,5,26.2,10,24.2,14.3C22.2,18.6,18.6,22.2,14.3,24.8C9.9,27.4,5,29,0.2,28.7C-4.6,28.4,-9.3,26.2,-14.9,24.4C-20.5,22.5,-27.2,21,-33.1,17C-39.1,13,-44.3,6.5,-42.6,1C-40.9,-4.5,-32.2,-9.1,-26.3,-13.1C-20.4,-17.2,-17.2,-20.8,-13.3,-23.2C-9.4,-25.6,-4.7,-26.8,0.3,-27.2C5.2,-27.7,10.5,-27.4,14.7,-25.2Z" width="100%" height="100%" transform="translate(50 50)" stroke-width="0" style="transition: all 0.3s ease 0s;"></path>
              </svg>
